<?xml version="1.0" encoding="UTF-8"?>
<svg width="600" height="400" viewBox="0 0 600 400" fill="none" xmlns="http://www.w3.org/2000/svg">
  <!-- 배경 -->
  <rect width="600" height="400" rx="20" fill="#F0F4FF" />
  
  <!-- 시계 배경 -->
  <circle cx="300" cy="200" r="150" fill="#E2EAFC" stroke="#3B82F6" stroke-width="8" />
  
  <!-- 시계 숫자 위치 마커 -->
  <line x1="300" y1="70" x2="300" y2="90" stroke="#334155" stroke-width="4" />
  <line x1="430" y1="200" x2="410" y2="200" stroke="#334155" stroke-width="4" />
  <line x1="300" y1="330" x2="300" y2="310" stroke="#334155" stroke-width="4" />
  <line x1="170" y1="200" x2="190" y2="200" stroke="#334155" stroke-width="4" />
  
  <!-- 시계 시침과 분침 -->
  <line x1="300" y1="200" x2="250" y2="130" stroke="#1E40AF" stroke-width="6" stroke-linecap="round" />
  <line x1="300" y1="200" x2="370" y2="230" stroke="#2563EB" stroke-width="4" stroke-linecap="round" />
  
  <!-- 시계 중앙 원 -->
  <circle cx="300" cy="200" r="10" fill="#1E40AF" />
  
  <!-- 토론자 아이콘 왼쪽 -->
  <circle cx="180" cy="200" r="40" fill="#BFDBFE" />
  <circle cx="180" cy="170" r="15" fill="#3B82F6" />
  <path d="M150 220C150 205 165 195 180 195C195 195 210 205 210 220" fill="#3B82F6" />
  
  <!-- 토론자 아이콘 오른쪽 -->
  <circle cx="420" cy="200" r="40" fill="#FDE68A" />
  <circle cx="420" cy="170" r="15" fill="#F59E0B" />
  <path d="M390 220C390 205 405 195 420 195C435 195 450 205 450 220" fill="#F59E0B" />
  
  <!-- 말풍선 왼쪽 -->
  <path d="M140 160C140 145 150 135 165 135H195C210 135 220 145 220 160V170C220 185 210 195 195 195H175L165 205V195H165C150 195 140 185 140 170V160Z" fill="white" stroke="#3B82F6" stroke-width="2" />
  
  <!-- 말풍선 오른쪽 -->
  <path d="M380 160C380 145 390 135 405 135H435C450 135 460 145 460 160V170C460 185 450 195 435 195H415L405 205V195H405C390 195 380 185 380 170V160Z" fill="white" stroke="#F59E0B" stroke-width="2" />
  
  <!-- 토론 단계 표시 아래쪽 -->
  <rect x="200" y="300" width="60" height="30" rx="5" fill="#3B82F6" />
  <rect x="270" y="300" width="60" height="30" rx="5" fill="#60A5FA" />
  <rect x="340" y="300" width="60" height="30" rx="5" fill="#93C5FD" />
</svg> 